<?xml version="1.0" encoding="UTF-8"?><svg xmlns="http://www.w3.org/2000/svg" xmlns:xlink="http://www.w3.org/1999/xlink" contentScriptType="text/ecmascript" width="48pt" zoomAndPan="magnify" contentStyleType="text/css" viewBox="0 0 48 48" height="48pt" preserveAspectRatio="xMidYMid meet" version="1.2"><g xml:id="surface1" id="surface1"><path style=" stroke:none;fill-rule:nonzero;fill:rgb(21.958923%,58.039856%,100%);fill-opacity:1;" d="M 22.910156 28.304688 C 22.546875 28.707031 22.101562 29.035156 21.570312 29.289062 C 19.472656 30.261719 16.988281 29.367188 16.007812 27.269531 C 13.386719 21.71875 14.347656 15.191406 18.449219 10.632812 C 22.546875 6.074219 28.933594 4.421875 34.75 6.425781 C 36.9375 7.179688 38.109375 9.570312 37.34375 11.742188 C 36.597656 13.929688 34.207031 15.097656 32.035156 14.328125 C 29.421875 13.4375 26.527344 14.183594 24.679688 16.234375 C 22.835938 18.289062 22.417969 21.226562 23.578125 23.730469 C 24.320312 25.28125 24 27.09375 22.910156 28.304688 Z M 22.910156 28.304688 "/><path style=" stroke:none;fill-rule:nonzero;fill:rgb(0%,0%,0%);fill-opacity:1;" d="M 25.226562 18.75 C 25.589844 18.351562 26.039062 18.023438 26.574219 17.777344 C 28.675781 16.816406 31.15625 17.730469 32.117188 19.835938 C 34.699219 25.40625 33.6875 31.925781 29.554688 36.457031 C 25.421875 40.984375 19.023438 42.585938 13.222656 40.539062 C 11.039062 39.769531 9.886719 37.371094 10.667969 35.203125 C 11.429688 33.023438 13.828125 31.875 15.996094 32.65625 C 18.605469 33.566406 21.503906 32.84375 23.363281 30.804688 C 25.222656 28.765625 25.664062 25.828125 24.523438 23.316406 C 23.792969 21.761719 24.128906 19.953125 25.226562 18.75 Z M 25.226562 18.75 "/></g></svg>