<?xml version="1.0" encoding="utf-8"?>
<!-- Generator: Adobe Illustrator 24.2.1, SVG Export Plug-In . SVG Version: 6.00 Build 0)  -->
<svg version="1.1" id="LOGO" xmlns="http://www.w3.org/2000/svg" xmlns:xlink="http://www.w3.org/1999/xlink" x="0px" y="0px"
	 viewBox="0 0 1314.53 471.8" style="enable-background:new 0 0 1314.53 471.8;" xml:space="preserve">
<style type="text/css">
	.st0{fill:#550FAF;}
</style>
<g>
	<path class="st0" d="M215.25,251.74l3.23-20.35h56.04l-1.94,12.92c-4.52,30.52-28.26,50.71-60.88,50.71
		c-31.81,0.48-54.75-21.96-54.42-52.32c-0.65-37.63,28.1-67.18,65.08-66.54c27.29,0,47.32,15.99,52.16,38.92l-27.61,5.65
		c-3.07-12.27-11.63-19.7-25.03-19.7c-20.99,0-36.01,17.76-36.01,41.67c0,16.63,10.17,27.45,26.49,27.45
		c14.21,0,25.68-7.43,29.39-18.41H215.25z"/>
	<path class="st0" d="M356.98,275.32h-54.59l-9.85,16.8h-30.2l70.57-113.05h26.48l30.52,113.05h-28.91L356.98,275.32z
		 M351.33,250.93l-9.85-41.34h-0.32l-24.39,41.34H351.33z"/>
	<path class="st0" d="M418.29,179.06h29.39l26.49,75.42h0.32l52.65-75.42h32.78L539.9,292.11h-27.62l12.27-68.96h-0.32l-49.09,68.96
		h-11.3l-25.19-68.96H438l-12.11,68.96h-27.62L418.29,179.06z"/>
	<path class="st0" d="M885.67,275.32h-54.59l-9.85,16.8h-30.2l70.57-113.05h26.48l30.52,113.05h-28.91L885.67,275.32z
		 M880.02,250.93l-9.85-41.34h-0.32l-24.39,41.34H880.02z"/>
	<path class="st0" d="M998.08,228.97l43.28,63.14h-33.75l-29.88-45.54h-0.32l-15.83,13.24l-5.98,32.3h-28.58l19.86-113.05h28.59
		l-7.59,43.44h0.32l49.42-43.44h39.89L998.08,228.97z"/>
	<path class="st0" d="M1093.8,203.93l-3.39,19.38h53.78l-4.04,23.09h-53.78l-3.72,20.83h59.11l-4.52,24.87h-87.53l19.86-113.05
		h87.69l-4.36,24.87H1093.8z"/>
	<path class="st0" d="M799.4,215.47l-39.98,21.81l32.02,21.37l-2.68,17.19l-70.78,38.6l-11.87-22.99l48.63-25.65l-31.53-20.83
		l2.86-18.79l39.32-20.73l-38.18-25.22l13.42-22.97l61.45,41.03L799.4,215.47z M559.68,256.32l39.98-21.81l-32.02-21.37l2.68-17.19
		l70.78-38.6l11.87,22.99l-48.63,25.65l31.53,20.83l-2.86,18.79l-39.32,20.73l38.18,25.22l-13.42,22.97L557,273.5L559.68,256.32z
		 M674.95,235.62l47.19-78.35H691.2l-47.22,78.35H674.95z M684.47,235.62l-47.53,78.91h30.94l47.56-78.91H684.47z"/>
</g>
</svg>
