<?xml version="1.0" encoding="UTF-8"?>
<svg xmlns="http://www.w3.org/2000/svg" xmlns:xlink="http://www.w3.org/1999/xlink" width="300pt" height="74.999997pt" viewBox="0 0 300 74.999997" version="1.2">
<defs>
<clipPath id="clip1">
  <path d="M 102.144531 11.425781 L 132.699219 11.425781 L 132.699219 39.683594 L 102.144531 39.683594 Z M 102.144531 11.425781 "/>
</clipPath>
<clipPath id="clip2">
  <path d="M 75.9375 11.660156 L 106.492188 11.660156 L 106.492188 39.683594 L 75.9375 39.683594 Z M 75.9375 11.660156 "/>
</clipPath>
</defs>
<g id="surface1">
<g clip-path="url(#clip1)" clip-rule="nonzero">
<path style=" stroke:none;fill-rule:nonzero;fill:rgb(100%,100%,100%);fill-opacity:1;" d="M 124.1875 26.761719 L 119.339844 26.761719 L 124.570312 21.882812 L 125.273438 21.253906 L 124.597656 21.253906 C 118.445312 21.253906 113.757812 22.953125 110.683594 26.308594 C 105.894531 31.539062 106.464844 39.609375 106.464844 39.683594 L 102.203125 39.683594 C 102.15625 39.285156 101.441406 30.074219 107.503906 23.421875 C 111.429688 19.117188 117.171875 16.933594 124.597656 16.933594 L 125.230469 16.933594 L 124.570312 16.304688 L 119.339844 11.425781 L 124.1875 11.425781 L 132.699219 19.101562 Z M 124.1875 26.761719 "/>
</g>
<path style=" stroke:none;fill-rule:nonzero;fill:rgb(100%,100%,100%);fill-opacity:1;" d="M 62.121094 32.308594 L 62.121094 50.121094 C 61.417969 50.238281 60.554688 50.296875 59.542969 50.296875 C 58.519531 50.296875 57.667969 50.238281 56.964844 50.121094 L 56.964844 32.308594 L 51.574219 32.308594 C 51.457031 31.695312 51.398438 30.992188 51.398438 30.199219 C 51.398438 29.378906 51.457031 28.664062 51.574219 28.03125 L 67.570312 28.03125 C 67.761719 28.589844 67.863281 29.261719 67.863281 30.082031 C 67.863281 30.875 67.644531 31.429688 67.21875 31.78125 C 66.777344 32.132812 66.074219 32.308594 65.109375 32.308594 Z M 62.121094 32.308594 "/>
<path style=" stroke:none;fill-rule:nonzero;fill:rgb(100%,100%,100%);fill-opacity:1;" d="M 75.046875 44.085938 C 75.632812 45.773438 76.804688 46.605469 78.5625 46.605469 C 79.410156 46.605469 80.113281 46.402344 80.671875 45.960938 C 81.257812 45.539062 81.699219 44.996094 82.019531 44.320312 C 82.328125 43.617188 82.519531 42.855469 82.605469 42.035156 C 82.722656 41.1875 82.78125 40.335938 82.78125 39.515625 C 82.78125 38.785156 82.738281 37.933594 82.664062 36.996094 C 82.621094 36.058594 82.457031 35.210938 82.195312 34.417969 C 81.960938 33.597656 81.550781 32.925781 80.964844 32.367188 C 80.410156 31.828125 79.617188 31.546875 78.5625 31.546875 C 77.507812 31.546875 76.703125 31.828125 76.160156 32.367188 C 75.605469 32.882812 75.191406 33.527344 74.929688 34.300781 C 74.652344 35.050781 74.476562 35.871094 74.402344 36.761719 C 74.359375 37.628906 74.34375 38.390625 74.34375 39.046875 C 74.34375 40.074219 74.371094 40.96875 74.460938 41.742188 C 74.578125 42.492188 74.769531 43.265625 75.046875 44.085938 Z M 72.410156 48.597656 C 70.097656 46.652344 68.953125 43.488281 68.953125 39.105469 C 68.953125 37.203125 69.160156 35.53125 69.597656 34.125 C 70.066406 32.691406 70.710938 31.476562 71.53125 30.492188 C 72.351562 29.527344 73.347656 28.792969 74.519531 28.324219 C 75.722656 27.828125 77.066406 27.5625 78.5625 27.5625 C 80.042969 27.5625 81.375 27.828125 82.546875 28.324219 C 83.746094 28.792969 84.773438 29.527344 85.59375 30.492188 C 86.441406 31.476562 87.089844 32.691406 87.527344 34.125 C 87.953125 35.578125 88.171875 37.230469 88.171875 39.105469 C 88.171875 40.980469 87.953125 42.652344 87.527344 44.085938 C 87.089844 45.492188 86.441406 46.695312 85.59375 47.660156 C 84.773438 48.644531 83.746094 49.390625 82.546875 49.886719 C 81.375 50.355469 80.042969 50.589844 78.5625 50.589844 C 76.101562 50.589844 74.050781 49.933594 72.410156 48.597656 Z M 72.410156 48.597656 "/>
<path style=" stroke:none;fill-rule:nonzero;fill:rgb(100%,100%,100%);fill-opacity:1;" d="M 115.789062 44.796875 C 116.375 46.480469 117.546875 47.316406 119.304688 47.316406 C 120.15625 47.316406 120.859375 47.109375 121.414062 46.671875 C 122 46.246094 122.441406 45.703125 122.761719 45.03125 C 123.070312 44.328125 123.261719 43.566406 123.347656 42.746094 C 123.464844 41.894531 123.523438 41.046875 123.523438 40.226562 C 123.523438 39.492188 123.480469 38.644531 123.40625 37.707031 C 123.363281 36.769531 123.203125 35.917969 122.9375 35.128906 C 122.703125 34.308594 122.292969 33.632812 121.707031 33.078125 C 121.152344 32.535156 120.359375 32.257812 119.304688 32.257812 C 118.25 32.257812 117.445312 32.535156 116.902344 33.078125 C 116.347656 33.589844 115.9375 34.234375 115.671875 35.011719 C 115.394531 35.757812 115.21875 36.578125 115.144531 37.472656 C 115.101562 38.335938 115.085938 39.097656 115.085938 39.757812 C 115.085938 40.78125 115.117188 41.675781 115.203125 42.453125 C 115.320312 43.199219 115.511719 43.976562 115.789062 44.796875 Z M 113.152344 49.308594 C 110.839844 47.359375 109.695312 44.195312 109.695312 39.816406 C 109.695312 37.910156 109.902344 36.242188 110.339844 34.835938 C 110.808594 33.398438 111.453125 32.183594 112.273438 31.203125 C 113.09375 30.234375 114.089844 29.503906 115.261719 29.035156 C 116.464844 28.535156 117.8125 28.273438 119.304688 28.273438 C 120.785156 28.273438 122.117188 28.535156 123.289062 29.035156 C 124.492188 29.503906 125.515625 30.234375 126.335938 31.203125 C 127.1875 32.183594 127.832031 33.398438 128.269531 34.835938 C 128.695312 36.285156 128.914062 37.941406 128.914062 39.816406 C 128.914062 41.691406 128.695312 43.359375 128.269531 44.796875 C 127.832031 46.203125 127.1875 47.402344 126.335938 48.371094 C 125.515625 49.351562 124.492188 50.097656 123.289062 50.597656 C 122.117188 51.066406 120.785156 51.300781 119.304688 51.300781 C 116.84375 51.300781 114.792969 50.640625 113.152344 49.308594 Z M 113.152344 49.308594 "/>
<path style=" stroke:none;fill-rule:nonzero;fill:rgb(100%,100%,100%);fill-opacity:1;" d="M 149.734375 28.742188 L 149.734375 42.6875 C 149.734375 45.46875 148.972656 47.59375 147.449219 49.074219 C 145.957031 50.566406 143.816406 51.300781 141.003906 51.300781 C 138.191406 51.300781 136.023438 50.566406 134.5 49.074219 C 132.976562 47.59375 132.214844 45.46875 132.214844 42.6875 L 132.214844 28.742188 L 132.449219 28.507812 L 134.382812 28.507812 C 136.40625 28.507812 137.429688 29.605469 137.429688 31.789062 L 137.429688 42.746094 C 137.429688 44.269531 137.695312 45.410156 138.25 46.144531 C 138.792969 46.847656 139.714844 47.199219 141.003906 47.199219 C 142.292969 47.199219 143.203125 46.847656 143.757812 46.144531 C 144.300781 45.410156 144.578125 44.269531 144.578125 42.746094 L 144.578125 28.742188 C 145.238281 28.625 146.101562 28.566406 147.15625 28.566406 C 148.167969 28.566406 149.03125 28.625 149.734375 28.742188 Z M 149.734375 28.742188 "/>
<path style=" stroke:none;fill-rule:nonzero;fill:rgb(100%,100%,100%);fill-opacity:1;" d="M 170.160156 35.539062 C 170.160156 36.285156 170.042969 36.972656 169.808594 37.589844 C 169.601562 38.21875 169.339844 38.789062 168.988281 39.289062 C 168.636719 39.800781 168.195312 40.253906 167.699219 40.636719 C 167.230469 41.03125 166.730469 41.308594 166.234375 41.457031 C 167.363281 41.894531 168.195312 42.890625 168.753906 44.445312 L 169.691406 47.199219 C 170.070312 48.296875 170.628906 49.101562 171.332031 49.601562 C 170.980469 50.039062 170.46875 50.40625 169.808594 50.714844 C 169.179688 50.976562 168.476562 51.125 167.699219 51.125 C 166.953125 51.125 166.367188 50.90625 165.941406 50.480469 C 165.5 50.011719 165.089844 49.234375 164.710938 48.136719 L 163.539062 44.738281 C 163.304688 44.121094 162.980469 43.625 162.601562 43.273438 C 162.207031 42.921875 161.605469 42.746094 160.785156 42.746094 L 159.496094 42.746094 L 159.496094 50.832031 C 158.792969 50.949219 157.929688 51.007812 156.917969 51.007812 C 155.863281 51.007812 155 50.949219 154.339844 50.832031 L 154.339844 28.917969 L 154.574219 28.683594 C 156.449219 28.652344 158.03125 28.625 159.320312 28.625 C 160.609375 28.59375 161.605469 28.566406 162.308594 28.566406 C 163.507812 28.566406 164.59375 28.726562 165.53125 29.035156 C 166.496094 29.3125 167.316406 29.738281 167.992188 30.324219 C 168.695312 30.878906 169.222656 31.597656 169.574219 32.492188 C 169.953125 33.398438 170.160156 34.410156 170.160156 35.539062 Z M 159.496094 32.433594 L 159.496094 38.761719 C 160.460938 38.761719 161.28125 38.746094 161.957031 38.703125 C 162.660156 38.671875 163.203125 38.554688 163.597656 38.351562 C 164.023438 38.117188 164.328125 37.808594 164.535156 37.414062 C 164.769531 36.988281 164.886719 36.386719 164.886719 35.597656 C 164.886719 33.488281 163.890625 32.433594 161.898438 32.433594 C 161.386719 32.433594 160.917969 32.433594 160.492188 32.433594 C 160.097656 32.433594 159.757812 32.433594 159.496094 32.433594 Z M 159.496094 32.433594 "/>
<path style=" stroke:none;fill-rule:nonzero;fill:rgb(100%,100%,100%);fill-opacity:1;" d="M 186.453125 44.269531 L 186.394531 46.613281 L 186.394531 46.671875 C 187.359375 46.640625 188.167969 46.613281 188.796875 46.613281 L 196.296875 46.613281 C 196.296875 47.402344 196.253906 48.003906 196.179688 48.429688 C 195.945312 50.113281 194.847656 50.949219 192.898438 50.949219 L 184.285156 50.949219 C 183.347656 50.949219 182.601562 50.683594 182.058594 50.128906 C 181.546875 49.585938 181.296875 48.839844 181.296875 47.902344 L 181.296875 28.976562 L 181.53125 28.742188 L 195.476562 28.742188 C 195.59375 29.371094 195.652344 30.058594 195.652344 30.792969 C 195.652344 31.539062 195.503906 32.300781 195.242188 33.078125 L 186.394531 33.078125 L 186.453125 35.421875 L 186.453125 37.648438 C 186.996094 37.648438 187.710938 37.648438 188.621094 37.648438 L 193.601562 37.648438 C 193.792969 38.234375 193.894531 38.921875 193.894531 39.699219 C 193.894531 40.488281 193.792969 41.207031 193.601562 41.867188 L 186.453125 41.867188 Z M 186.453125 44.269531 "/>
<path style=" stroke:none;fill-rule:nonzero;fill:rgb(100%,100%,100%);fill-opacity:1;" d="M 217.296875 28.507812 L 217.53125 28.742188 L 217.53125 50.714844 C 216.667969 50.90625 215.65625 51.007812 214.484375 51.007812 C 213.3125 51.007812 212.257812 50.949219 211.320312 50.832031 L 206.28125 39.230469 C 205.652344 37.941406 205.023438 36.445312 204.40625 34.71875 L 204.347656 34.71875 C 204.582031 37.882812 204.699219 41.105469 204.699219 44.386719 L 204.699219 50.832031 C 204.027344 50.949219 203.234375 51.007812 202.296875 51.007812 C 201.359375 51.007812 200.554688 50.949219 199.894531 50.832031 L 199.894531 28.859375 C 200.714844 28.667969 201.683594 28.566406 202.824219 28.566406 C 203.996094 28.566406 205.023438 28.625 205.929688 28.742188 L 210.96875 40.285156 C 211.863281 42.4375 212.523438 44.078125 212.960938 45.207031 L 213.078125 45.148438 C 212.84375 42.144531 212.726562 38.964844 212.726562 35.597656 L 212.726562 31.671875 C 212.726562 30.542969 212.933594 29.738281 213.371094 29.269531 C 213.839844 28.769531 214.574219 28.507812 215.597656 28.507812 Z M 217.296875 28.507812 "/>
<path style=" stroke:none;fill-rule:nonzero;fill:rgb(100%,100%,100%);fill-opacity:1;" d="M 236.710938 49.425781 C 236.007812 49.980469 235.085938 50.390625 233.957031 50.65625 C 232.859375 50.890625 231.628906 51.007812 230.265625 51.007812 C 229.589844 51.007812 228.625 50.976562 227.335938 50.949219 C 226.074219 50.949219 224.523438 50.917969 222.648438 50.890625 L 222.414062 50.65625 L 222.414062 28.917969 L 222.648438 28.683594 C 223.894531 28.652344 225.183594 28.625 226.515625 28.625 C 227.878906 28.59375 229.296875 28.566406 230.792969 28.566406 C 232.625 28.566406 234.148438 28.859375 235.363281 29.445312 C 236.609375 30 237.589844 30.777344 238.292969 31.789062 C 239.023438 32.8125 239.550781 34 239.875 35.363281 C 240.183594 36.738281 240.34375 38.21875 240.34375 39.816406 C 240.34375 41.96875 240.078125 43.84375 239.582031 45.441406 C 239.070312 47.007812 238.117188 48.339844 236.710938 49.425781 Z M 230.734375 46.964844 C 233.574219 46.964844 235.011719 44.589844 235.011719 39.816406 C 235.011719 35.011719 233.574219 32.609375 230.734375 32.609375 C 230.058594 32.609375 229.460938 32.609375 228.917969 32.609375 C 228.40625 32.609375 227.949219 32.59375 227.570312 32.550781 L 227.570312 47.023438 C 227.949219 46.992188 228.40625 46.964844 228.917969 46.964844 C 229.460938 46.964844 230.058594 46.964844 230.734375 46.964844 Z M 230.734375 46.964844 "/>
<g clip-path="url(#clip2)" clip-rule="nonzero">
<path style=" stroke:none;fill-rule:nonzero;fill:rgb(100%,100%,100%);fill-opacity:1;" d="M 84.449219 26.761719 L 89.296875 26.761719 L 84.066406 21.882812 L 83.363281 21.253906 L 84.039062 21.253906 C 90.207031 21.253906 94.878906 22.953125 97.953125 26.308594 C 102.742188 31.539062 102.1875 39.609375 102.171875 39.683594 L 106.449219 39.683594 C 106.480469 39.285156 107.195312 30.074219 101.132812 23.421875 C 97.222656 19.117188 91.464844 16.933594 84.039062 16.933594 L 83.410156 16.933594 L 84.066406 16.304688 L 89.296875 11.425781 L 84.449219 11.425781 L 75.9375 19.101562 Z M 84.449219 26.761719 "/>
</g>
<path style="fill:none;stroke-width:1;stroke-linecap:round;stroke-linejoin:miter;stroke:rgb(100%,100%,100%);stroke-opacity:1;stroke-miterlimit:4;" d="M 0.500999 -0.00126604 L 3.036699 -0.00126604 " transform="matrix(0,-5.216137,5.188125,0,104.186256,49.781246)"/>
</g>
</svg>
