<svg xmlns="http://www.w3.org/2000/svg" xmlns:xlink="http://www.w3.org/1999/xlink" version="1.1" baseProfile="basic" xml:space="preserve" width="292" height="72" style=""><rect id="backgroundrect" width="100%" height="100%" x="0" y="0" fill="none" stroke="none"/>

<g class="currentLayer" style=""><title>Layer 1</title><g id="svg_1" class="">
	<g id="svg_2">
		<path d="M29.503000862121553,14.955999561309795 c-3.5540000000000003,0 -6.557,0.6860000000000006 -9.015,2.049 c-2.8680000000000003,1.6390000000000002 -5.055,3.7590000000000003 -6.556,6.352 v-16.391000000000002 c0,-1.911 -0.6850000000000006,-3.551 -2.049,-4.917 c-1.367,-1.364 -3.006,-2.049 -4.917,-2.049 h-6.966 v46.918 c0,9.7 2.798,16.256 8.4,19.669 c5.599,3.416 11.678,5.122 18.234,5.122 c3.4130000000000003,0 6.864,-0.5830000000000003 10.347,-1.741 c3.483,-1.159 6.249,-3.038 8.298,-5.635 c4.098,-5.327 6.146,-12.223 6.146,-20.693 c0,-8.467 -2.049,-15.366 -6.146,-20.693 S35.92100086212156,14.955999561309795 29.503000862121553,14.955999561309795 zM34.21500086212154,55.52399956130978 c-2.049,2.8680000000000003 -4.9879999999999995,4.303 -8.81,4.303 c-3.688,0 -6.557,-1.435 -8.605,-4.303 c-1.9140000000000001,-2.5940000000000003 -2.8680000000000003,-6.7620000000000005 -2.8680000000000003,-12.498 c0,-4.917 1.024,-8.811 3.073,-11.679 c2.049,-2.73 4.984,-4.098 8.81,-4.098 c3.55,0 6.352,1.435 8.4,4.303 c2.049,2.733 3.073,6.557 3.073,11.474 C37.288000862121635,48.48999956130979 36.264000862121634,52.653999561309774 34.21500086212154,55.52399956130978 z" id="svg_3"/>
		<path d="M62.48900086212154,16.185999561309814 h-7.375 v54.499 h14.342 v-47.533 c0,-1.911 -0.6850000000000006,-3.55 -2.049,-4.917 C66.03900086212161,16.869999561309783 64.4000008621216,16.185999561309814 62.48900086212154,16.185999561309814 z" id="svg_4"/>
		<path d="M62.48900086212154,0.20399956130984268 h-7.375 v11.269 h14.342 v-4.302 c0,-1.911 -0.6850000000000006,-3.551 -2.049,-4.918 C66.03900086212161,0.889999561309765 64.4000008621216,0.20399956130984268 62.48900086212154,0.20399956130984268 z" id="svg_5"/>
		<path d="M94.84500086212154,7.170999561309827 c0,-1.911 -0.6850000000000006,-3.551 -2.049,-4.918 c-1.367,-1.363 -2.938,-2.049 -4.712,-2.049 h-7.376 v16.187 h-2.375 c-3.192,0 -5.78,2.588 -5.78,5.78 v3.7560000000000002 h8.155 v44.758 h14.391 l-0.254,-44.46 h1.435 c0.975,0 1.8780000000000001,-0.171 2.712,-0.508 c2.45,-0.6700000000000006 4.254,-2.907 4.254,-5.57 v-0.8880000000000003 v-2.8680000000000003 h-8.4 V7.170999561309827 z" id="svg_6"/>
		<path d="M133.15900086212162,16.185999561309814 c-3.688,0 -7.273,0.48000000000000015 -10.756,1.4340000000000002 c-3.483,0.9580000000000003 -6.524,2.459 -9.117,4.508 c-2.734,2.187 -4.885,5.09 -6.454,8.708 c-1.572,3.62 -2.356,8.093 -2.356,13.42 v26.43 h14.342 v-28.069 c0,-4.098 0.9540000000000003,-7.101 2.869,-9.015 c1.911,-1.911 4.847,-2.8680000000000003 8.81,-2.8680000000000003 h4.712 v-14.547 c-0.275,0 -0.6140000000000003,0 -1.024,0 C133.77400086212162,16.185999561309814 133.43100086212155,16.185999561309814 133.15900086212162,16.185999561309814 z" id="svg_7"/>
		<path d="M176.57000086212156,18.848999561309824 c-3.825,-2.593 -9.562,-3.8930000000000002 -17.21,-3.8930000000000002 c-6.832,0 -12.088,1.572 -15.776,4.712 c-3.278,2.734 -5.192,6.218 -5.736,10.449 h13.727 c0.6820000000000006,-1.501 1.7730000000000001,-2.525 3.278,-3.073 c1.501,-0.544 3.208,-0.8190000000000003 5.122,-0.8190000000000003 c1.7730000000000001,0 3.72,0.30800000000000016 5.839,0.922 c2.116,0.6150000000000003 3.176,1.9460000000000002 3.176,3.995 c0,2.734 -3.006,4.508 -9.015,5.327 c-1.229,0.138 -2.324,0.30800000000000016 -3.278,0.513 c-0.9570000000000003,0.20400000000000001 -1.7770000000000001,0.30700000000000016 -2.458,0.30700000000000016 c-5.192,0.8200000000000003 -9.46,2.459 -12.805,4.918 c-3.349,2.458 -5.02,6.556 -5.02,12.293 c0,6.146 1.844,10.551 5.532,13.215 c3.688,2.6630000000000003 7.99,3.995 12.908,3.995 c2.458,0 5.292,-0.17300000000000001 8.502,-0.512 c3.208,-0.3430000000000003 6.249,-1.262 9.117,-2.7670000000000003 c2.731,-1.363 5.087,-3.585 7.069,-6.658 c1.979,-3.073 2.971,-7.341 2.971,-12.806000000000001 v-18.645 C182.5110008621216,25.404999561309864 180.5300008621216,21.58299956130986 176.57000086212156,18.848999561309824 zM169.19400086212158,48.352999561309844 c0,3.825 -1.095,6.831 -3.278,9.015 c-2.187,2.187 -5.192,3.278 -9.015,3.278 c-2.324,0 -4.098,-0.545 -5.327,-1.6400000000000001 c-1.229,-1.229 -1.844,-2.8680000000000003 -1.844,-4.917 c0,-1.501 0.47700000000000015,-3.003 1.4340000000000002,-4.508 c1.091,-1.091 2.8680000000000003,-1.978 5.327,-2.6630000000000003 l4.712,-1.024 c3.4130000000000003,-0.8190000000000003 6.076,-1.706 7.991,-2.6630000000000003 V48.352999561309844 z" id="svg_8"/>
		<path d="M245.3860008621216,21.102999561309844 l-7.581,32.781 l-7.376,-37.698 h-14.547 l-7.786,37.698 l-8.605,-37.698 h-13.932 l14.957,54.499 h14.342 l8.4,-38.928 l8.4,38.928 h14.342 l14.957,-54.499 h-9.015 C248.38900086212163,16.185999561309814 246.20600086212153,17.823999561309847 245.3860008621216,21.102999561309844 z" id="svg_9"/>
		<path d="M292.37800086212155,16.185999561309814 c-0.275,0 -0.6140000000000003,0 -1.024,0 c-0.40900000000000014,0 -0.7520000000000003,0 -1.024,0 c-3.688,0 -7.273,0.48000000000000015 -10.756,1.4340000000000002 c-3.483,0.9580000000000003 -6.524,2.459 -9.118,4.508 c-2.733,2.187 -4.885,5.09 -6.453,8.708 c-1.572,3.62 -2.356,8.093 -2.356,13.42 v26.43 h14.342 v-28.069 c0,-4.098 0.9540000000000003,-7.101 2.8680000000000003,-9.015 c1.911,-1.911 4.847,-2.8680000000000003 8.811,-2.8680000000000003 h4.712 V16.185999561309814 z" id="svg_10"/>
	</g>
	<g opacity="1.0" id="svg_11">
	</g>
</g></g></svg>
